# xmcd
#
# Track frame offsets: 
#        150
#        12437
#        25995
#        40420
#        52757
#        67292
#        81887
#        97887
#        114480
#        128785
#        143457
#        159030
#        174725
#        188255
#        202535
#        217692
#        229995
#        242727
#        256370
#        274262
#        290812
#
# Disc length: 4038 seconds
#
# Revision: 6
# Processed by: cddbd v1.5.2PL0 Copyright (c) Steve Scherf et al.
# Submitted via: ExactAudioCopy v1.0b6
#
DISCID=1a0fc415
DTITLE=Tammy Wynette - Tears Of Fire - The 25th Anniversary Collection
DTITLE=[CD 3)
DYEAR=1992
DGENRE=Country
TTITLE0=Two Story House (with George Jones) (1980)
TTITLE1=Cowboys Don't Shoot Straight (Like They Used To) (1980)
TTITLE2=Crying In The Rain (1980)
TTITLE3=Another Chance (1981)
TTITLE4=You Still Get To Me In My Dreams (1981)
TTITLE5=Unwed Fathers (1983)
TTITLE6=(I'm Not) A Candle In The Wind (1984)
TTITLE7=Sometimes When We Touch (with Mark Gray) (1984)
TTITLE8=Between Twenty-Nine And Danger (1985)
TTITLE9=Alive And Well (1986)
TTITLE10=Talkin' To Myself Again (with The O'Kanes) (1987)
TTITLE11=I Wasn't Meant To Live My Life Alone (with Vince Gill) (1987
TTITLE12=Beneath A Painted Sky (with Emmylou Harris) (1987)
TTITLE13=Your Love (with Ricky Skaggs) (1987)
TTITLE14=Higher Ground (with Larry, Steve and Rudy Gatlin) (1987)
TTITLE15=Liar's Roses (1988)
TTITLE16=We're Strangers Again (Duet with Randy Travis) (1989)
TTITLE17=Suddenly Single (1990)
TTITLE18=It Could've Been So Good (1990)
TTITLE19=Justified And Ancient X (with The KLF) (1991)
TTITLE20=Precious Memories (with The Masters Five) (1987)
EXTD=
EXTT0=
EXTT1=
EXTT2=
EXTT3=
EXTT4=
EXTT5=
EXTT6=
EXTT7=
EXTT8=
EXTT9=
EXTT10=
EXTT11=
EXTT12=
EXTT13=
EXTT14=
EXTT15=
EXTT16=
EXTT17=
EXTT18=
EXTT19=
EXTT20=
PLAYORDER=
